<svg width="22" height="22" viewBox="0 0 22 22" fill="none" xmlns="http://www.w3.org/2000/svg">
  <!-- Filled Cutout Style (Robust) -->
  <!-- Uses fills instead of strokes for better visibility reliability -->
  
  <g fill="#000000">
    <!-- Clipboard Frame (Ring) -->
    <!-- Created by subtracting inner rect from outer rect using path -->
    <path fill-rule="evenodd" clip-rule="evenodd" d="M6 3.5C4.89543 3.5 4 4.39543 4 5.5V17.5C4 18.6046 4.89543 19.5 6 19.5H16C17.1046 19.5 18 18.6046 18 17.5V5.5C18 4.39543 17.1046 3.5 16 3.5H6ZM5.5 5.5C5.5 5.22386 5.72386 5 6 5H16C16.2761 5 16.5 5.22386 16.5 5.5V17.5C16.5 17.7761 16.2761 18 16 18H6C5.72386 18 5.5 17.7761 5.5 17.5V5.5Z" />
    
    <!-- Clip Mechanism -->
    <rect x="7.5" y="2" width="7" height="2.5" rx="0.5" />
    
    <!-- Lightning Bolt -->
    <path d="M12.5 7.5L9.5 11.5H12L10.5 16L14.5 10H12.2H13.2L12.5 7.5Z" />
  </g>
</svg>
